<?xml version="1.0" standalone="no"?>
<!DOCTYPE svg PUBLIC "-//W3C//DTD SVG 20010904//EN"
 "http://www.w3.org/TR/2001/REC-SVG-20010904/DTD/svg10.dtd">
<svg version="1.0" xmlns="http://www.w3.org/2000/svg"
 width="153.000000pt" height="106.000000pt" viewBox="0 0 153.000000 106.000000"
 preserveAspectRatio="xMidYMid meet">

<g transform="translate(0.000000,106.000000) scale(0.100000,-0.100000)"
fill="#000000" stroke="none">
<path d="M957 959 c7 -8 34 -21 61 -28 44 -11 50 -16 60 -49 6 -20 10 -37 8
-39 -1 -2 -38 6 -82 17 -98 25 -161 25 -195 2 -15 -9 -48 -41 -75 -71 l-48
-54 -85 6 c-89 5 -89 6 -122 65 l-17 30 -158 7 c-88 3 -167 9 -177 11 -22 7
-32 -18 -17 -46 7 -13 8 -26 2 -33 -5 -7 -12 -50 -15 -96 -6 -71 -4 -88 10
-103 15 -17 15 -20 -4 -41 -55 -60 -73 -171 -41 -247 49 -115 176 -174 298
-140 77 21 152 104 165 180 6 36 10 40 36 40 17 0 44 -10 60 -23 25 -18 47
-23 116 -26 99 -4 154 9 176 42 8 12 29 57 47 100 35 85 101 167 150 187 36
15 47 8 56 -36 5 -27 2 -32 -25 -44 -66 -27 -113 -110 -113 -201 0 -197 230
-302 382 -172 54 47 80 102 80 173 0 133 -98 230 -233 230 l-64 0 -10 35 -11
35 99 0 c57 0 99 4 99 10 0 5 -27 24 -59 42 -53 29 -63 40 -85 90 l-24 58 -36
-15 c-50 -21 -52 -20 -66 31 -14 50 -35 65 -115 80 -34 6 -38 5 -28 -7z m50
-124 c100 -24 110 -25 145 -10 l38 15 15 -36 c8 -20 15 -40 15 -45 0 -5 19
-21 42 -36 l42 -28 -90 -5 c-100 -6 -133 -19 -189 -77 -32 -34 -115 -184 -115
-209 0 -6 -9 -20 -20 -32 -19 -20 -31 -22 -129 -22 -129 0 -132 2 -187 133
-30 73 -45 96 -90 135 -51 44 -54 50 -54 94 0 35 -5 50 -17 56 -10 5 -71 12
-137 15 -111 6 -146 15 -146 39 0 10 173 4 280 -8 41 -5 47 -9 61 -43 16 -38
18 -38 92 -49 42 -7 90 -9 107 -6 28 6 32 4 43 -25 6 -18 21 -34 32 -37 11 -3
71 -3 133 -2 154 4 146 22 -11 26 -122 3 -124 3 -136 28 -10 24 -8 31 25 71
42 51 88 83 122 83 12 0 70 -11 129 -25z m-658 -81 l64 -6 -7 -51 c-3 -29 -6
-67 -6 -86 l0 -34 -132 6 c-73 4 -136 7 -140 7 -9 0 -11 164 -2 172 6 6 98 3
223 -8z m159 -193 c37 -49 41 -71 12 -71 -11 0 -20 4 -20 9 0 5 -18 29 -40 52
-22 24 -40 48 -40 54 0 39 39 19 88 -44z m830 3 c184 -76 165 -337 -29 -395
-121 -37 -259 70 -259 201 0 61 39 138 85 169 37 25 48 22 59 -16 5 -16 1 -25
-14 -33 -57 -31 -78 -135 -40 -198 36 -59 126 -79 188 -42 122 75 77 260 -64
260 -42 0 -53 13 -54 58 0 17 82 16 128 -4z m-884 -40 c14 -16 26 -32 26 -36
0 -12 -72 -22 -79 -11 -14 23 -78 53 -111 53 -157 0 -207 -207 -67 -278 64
-34 118 -24 170 30 20 21 37 45 37 52 0 13 58 31 68 22 2 -3 1 -22 -2 -42 -10
-51 -89 -129 -147 -144 -138 -38 -278 67 -279 208 0 61 15 103 55 150 l28 34
138 -5 c137 -5 138 -5 163 -33z m-96 -40 l27 -18 -69 -16 c-37 -10 -72 -23
-77 -31 -15 -24 -10 -65 11 -84 18 -17 27 -17 82 -7 34 6 64 10 66 8 9 -9 -21
-47 -48 -61 -49 -25 -104 -19 -144 15 -116 102 23 278 152 194z m977 -27 c19
-19 37 -46 41 -61 10 -40 -16 -97 -56 -124 -101 -68 -226 57 -161 161 34 55
47 53 67 -6 9 -29 20 -56 25 -61 18 -20 21 5 5 50 -22 67 -21 74 15 74 22 0
41 -10 64 -33z m-767 -19 c6 -17 10 -34 7 -36 -3 -3 -71 -18 -151 -34 -153
-30 -174 -28 -174 12 0 29 20 37 150 63 162 32 154 32 168 -5z"/>
<path d="M595 622 c-13 -13 -3 -22 25 -22 17 0 30 4 30 9 0 10 -47 21 -55 13z"/>
<path d="M720 595 c0 -4 7 -19 15 -34 12 -25 12 -31 0 -47 -22 -28 -18 -62 10
-89 29 -30 64 -32 93 -5 24 23 30 78 10 98 -9 9 -9 18 0 37 23 51 7 63 -20 15
-21 -38 -57 -37 -72 2 -9 24 -36 40 -36 23z m108 -87 c16 -16 15 -53 -2 -67
-22 -19 -68 -9 -77 15 -16 45 46 85 79 52z"/>
<path d="M590 536 c0 -11 10 -16 31 -16 38 0 35 24 -4 28 -19 2 -27 -1 -27
-12z"/>
</g>
</svg>
