<?xml version="1.0" standalone="no"?>
<!DOCTYPE svg PUBLIC "-//W3C//DTD SVG 20010904//EN"
 "http://www.w3.org/TR/2001/REC-SVG-20010904/DTD/svg10.dtd">
<svg version="1.0" xmlns="http://www.w3.org/2000/svg"
 width="167.000000pt" height="108.000000pt" viewBox="0 0 167.000000 108.000000"
 preserveAspectRatio="xMidYMid meet">

<g transform="translate(0.000000,108.000000) scale(0.100000,-0.100000)"
fill="#000000" stroke="none">
<path d="M875 930 c-3 -5 21 -17 53 -27 40 -12 68 -28 85 -49 l26 -31 -75 -11
c-83 -13 -144 -40 -190 -84 -30 -28 -33 -29 -60 -15 -16 8 -49 17 -73 20 -24
3 -73 20 -108 38 -75 38 -89 32 -87 -37 1 -45 24 -84 51 -84 13 0 33 -39 33
-65 0 -8 -9 -19 -21 -25 -18 -10 -25 -7 -55 28 -53 62 -109 85 -199 80 -62 -3
-80 -8 -117 -33 -23 -17 -56 -50 -73 -74 -26 -37 -30 -53 -33 -119 -3 -70 0
-81 27 -129 43 -74 106 -114 186 -120 75 -7 120 7 181 53 l44 34 208 0 c228 0
276 8 337 54 19 15 47 48 62 74 26 44 28 57 33 186 l5 138 54 -67 c54 -67 54
-67 37 -93 -82 -126 -63 -261 48 -340 39 -29 58 -36 114 -40 76 -5 117 8 171
54 42 35 81 116 81 168 0 90 -56 182 -134 217 -56 26 -150 25 -201 -1 -21 -11
-42 -17 -46 -12 -4 4 -26 30 -48 57 l-41 50 27 5 28 5 0 90 0 90 -29 3 c-42 5
-85 -17 -103 -52 l-16 -30 -31 36 c-20 22 -49 41 -80 52 -58 19 -63 19 -71 6z
m315 -106 c0 -63 0 -64 -28 -64 -43 0 -72 26 -72 64 0 19 8 40 18 49 17 15 60
26 75 19 4 -2 7 -32 7 -68z m-110 -53 c5 -11 10 -43 10 -71 0 -91 2 -90 -175
-90 -144 0 -155 1 -165 20 -13 24 -4 44 37 81 55 51 128 77 220 78 52 1 64 -2
73 -18z m-549 -27 c28 -14 76 -29 107 -34 31 -5 63 -16 71 -25 14 -13 3 -15
-100 -15 -76 0 -119 4 -127 12 -12 12 -17 88 -7 88 3 0 28 -12 56 -26z m-165
-118 c28 -13 61 -37 73 -54 l21 -31 -22 -15 c-28 -20 -45 -20 -55 -2 -13 22
-76 56 -105 56 -117 0 -197 -130 -135 -220 36 -54 72 -75 127 -75 35 0 57 6
80 23 29 22 33 23 56 8 13 -9 24 -23 24 -31 0 -25 -85 -66 -147 -72 -50 -4
-65 -1 -113 24 -79 41 -115 102 -115 193 0 91 37 153 114 193 69 34 128 35
197 3z m254 -11 c-57 -31 -67 -31 -72 0 -5 24 -4 25 56 25 l61 -1 -45 -24z
m118 -7 c23 -22 31 -23 189 -23 l165 0 -5 -62 c-7 -71 -23 -108 -68 -152 -57
-58 -82 -63 -316 -64 -123 0 -213 4 -213 9 0 5 5 24 11 43 7 20 9 63 6 103
l-6 69 101 50 c56 27 104 49 106 49 3 0 17 -10 30 -22z m766 -15 c133 -93 120
-283 -23 -356 -64 -32 -118 -35 -176 -8 -43 19 -100 78 -116 118 -22 59 -6
156 36 208 15 19 16 19 37 -3 22 -22 22 -22 3 -54 -24 -41 -25 -116 -1 -152 9
-15 31 -36 49 -47 45 -28 127 -22 163 12 31 28 54 77 54 115 0 40 -39 101 -76
119 -37 18 -97 20 -125 4 -16 -8 -25 -7 -40 7 -28 25 -23 40 19 58 57 25 144
15 196 -21z m-1165 -61 c14 -10 26 -22 28 -28 2 -5 -22 -22 -52 -38 -30 -16
-55 -31 -55 -35 0 -4 23 -24 52 -45 l51 -39 -22 -18 c-36 -29 -112 -26 -150 7
-119 100 23 288 148 196z m1112 -15 c47 -31 66 -91 45 -141 -17 -40 -68 -76
-109 -76 -37 0 -80 23 -101 54 -24 38 -19 112 11 146 2 3 24 -18 48 -45 56
-65 71 -52 16 14 -38 45 -40 51 -24 60 30 17 78 12 114 -12z m-967 -29 c11
-42 6 -103 -12 -142 l-18 -39 -27 24 c-26 22 -27 26 -16 57 6 18 9 48 6 66 -4
28 -1 36 16 44 34 16 44 14 51 -10z m-93 -35 c2 -34 -3 -68 -11 -77 -8 -8 -80
39 -80 53 0 6 66 38 83 40 4 1 7 -7 8 -16z"/>
<path d="M700 515 c0 -9 7 -29 15 -45 l16 -30 -71 0 c-40 0 -70 -4 -70 -10 0
-6 31 -10 74 -10 72 0 75 -1 96 -30 21 -30 24 -31 88 -28 l67 3 38 70 c20 38
35 75 33 82 -4 10 -40 13 -146 13 -120 0 -140 -2 -140 -15z m233 -70 l-27 -55
-61 0 -61 0 -24 48 c-14 26 -26 50 -28 55 -2 4 48 7 112 7 l116 0 -27 -55z"/>
</g>
</svg>
