<svg xmlns="http://www.w3.org/2000/svg" version="1.0" width="163.000000pt" height="102.000000pt" viewBox="0 0 163.000000 102.000000" preserveAspectRatio="xMidYMid meet">

<g transform="translate(0.000000,102.000000) scale(0.100000,-0.100000)" fill="#ffffff" stroke="none">
<path d="M1002 959 c2 -7 32 -22 66 -33 58 -19 62 -22 77 -65 8 -24 15 -46 15 -47 0 -2 -21 7 -47 18 -102 45 -239 20 -317 -58 -25 -25 -47 -40 -51 -34 -4 6 -101 10 -266 10 -246 0 -260 -1 -279 -20 -15 -15 -20 -33 -20 -70 0 -48 1 -50 28 -50 26 0 25 -1 -14 -25 -59 -35 -138 -145 -114 -160 5 -3 18 11 29 32 25 49 75 99 125 126 40 21 52 22 469 25 235 2 427 0 427 -3 0 -3 -38 -81 -84 -174 -56 -110 -95 -177 -116 -195 l-32 -26 -404 0 -404 0 0 35 0 35 381 0 c300 0 380 3 377 13 -3 8 -41 13 -131 15 l-127 3 0 27 c0 50 -20 98 -57 142 -48 55 -101 80 -178 80 -113 0 -203 -77 -226 -192 -9 -46 -16 -58 -33 -60 -18 -3 -21 -11 -24 -60 l-3 -58 53 0 c41 0 56 -4 65 -19 6 -10 35 -30 64 -45 91 -45 196 -32 264 34 l30 29 187 3 187 3 33 32 c21 20 72 111 138 243 57 115 107 210 110 210 3 0 15 -29 27 -64 l20 -63 -46 -34 c-58 -43 -101 -123 -101 -188 0 -88 64 -183 147 -218 18 -7 58 -13 90 -13 141 1 251 131 227 268 -13 73 -73 150 -139 177 -11 5 -51 11 -89 14 l-69 6 -18 50 c-26 73 -25 75 26 75 l45 0 0 90 0 90 -39 0 c-27 0 -49 -8 -69 -25 l-30 -25 -18 52 c-18 48 -23 52 -69 68 -96 33 -98 33 -93 19z m298 -179 l0 -70 -28 0 c-36 0 -72 33 -72 66 0 32 42 74 75 74 24 0 25 -2 25 -70z m-190 28 c24 -13 53 -36 64 -51 l21 -28 -25 -47 -25 -47 -187 -3 -188 -2 0 38 c0 40 18 73 59 109 63 55 203 70 281 31z m-376 -94 c9 -8 16 -31 16 -50 l0 -34 -272 2 -273 3 -3 28 c-2 17 4 37 14 48 16 18 34 19 260 19 207 0 245 -2 258 -16z m-312 -184 c73 -21 130 -92 144 -179 l7 -41 -37 0 c-32 0 -36 3 -36 25 0 65 -59 126 -128 133 -84 8 -152 -49 -152 -125 0 -31 -2 -33 -35 -33 -33 0 -35 2 -35 34 0 47 22 95 62 133 60 58 129 75 210 53z m1007 -16 c73 -37 104 -86 109 -173 5 -86 -24 -143 -91 -185 -79 -49 -170 -45 -245 11 -102 76 -101 249 1 327 43 33 53 33 65 -2 9 -26 7 -31 -23 -55 -104 -83 -42 -247 92 -247 134 0 187 181 74 257 -21 14 -49 23 -73 23 -32 0 -40 4 -48 26 -6 14 -8 30 -4 35 11 18 90 9 143 -17z m-997 -90 c22 -20 48 -73 48 -99 0 -13 -19 -15 -120 -15 l-120 0 0 25 c0 37 26 82 58 100 35 20 106 14 134 -11z m966 6 c97 -60 50 -220 -65 -220 -42 0 -92 36 -110 77 -19 47 -5 102 35 133 l27 22 19 -61 c11 -34 23 -61 28 -61 12 0 10 23 -7 70 -8 23 -15 46 -15 51 0 16 55 9 88 -11z m-913 -265 c-34 -29 -84 -45 -135 -45 -40 0 -108 29 -129 53 -12 16 -2 17 140 17 l154 -1 -30 -24z" fill="#ffffff"/>
<path d="M570 531 c0 -11 49 -21 67 -14 27 10 12 23 -27 23 -22 0 -40 -4 -40 -9z" fill="#ffffff"/>
<path d="M710 530 c0 -6 16 -42 35 -80 l35 -70 74 0 74 0 36 65 c20 36 36 72 36 80 0 13 -24 15 -145 15 -92 0 -145 -4 -145 -10z m254 -18 c3 -5 -7 -32 -22 -60 l-27 -52 -60 0 -61 0 -26 54 c-15 30 -25 56 -22 58 8 9 212 9 218 0z" fill="#ffffff"/>
<path d="M610 460 c0 -5 18 -10 41 -10 24 0 38 4 34 10 -3 6 -22 10 -41 10 -19 0 -34 -4 -34 -10z" fill="#ffffff"/>
<path d="M630 390 c0 -5 18 -10 40 -10 22 0 40 5 40 10 0 6 -18 10 -40 10 -22 0 -40 -4 -40 -10z" fill="#ffffff"/>
</g>
</svg>