<svg xmlns="http://www.w3.org/2000/svg" version="1.0" width="152.000000pt" height="111.000000pt" viewBox="0 0 152.000000 111.000000" preserveAspectRatio="xMidYMid meet">

<g transform="translate(0.000000,111.000000) scale(0.100000,-0.100000)" fill="#ffffff" stroke="none">
<path d="M924 1019 c-6 -10 4 -14 67 -33 39 -12 43 -16 60 -71 10 -33 17 -61 15 -62 -1 -2 -17 2 -35 8 -46 16 -112 5 -179 -31 -50 -26 -67 -30 -137 -30 -106 0 -231 23 -351 64 -182 63 -296 46 -145 -21 l68 -30 -11 -52 c-8 -41 -7 -54 3 -60 7 -5 61 -19 119 -31 59 -13 109 -25 111 -27 3 -2 -36 -63 -65 -102 -2 -2 -26 6 -53 18 -230 99 -446 -151 -308 -356 87 -128 275 -140 381 -23 32 36 66 118 66 161 0 12 20 25 67 43 60 23 68 24 84 10 22 -20 116 -28 168 -14 46 12 66 42 94 140 10 33 31 73 53 99 37 42 111 97 121 88 2 -3 15 -38 28 -79 l24 -73 -22 -15 c-136 -89 -167 -247 -70 -359 51 -60 109 -84 193 -79 84 4 138 38 184 112 26 41 30 58 30 116 0 58 -4 75 -30 116 -16 27 -49 62 -72 79 -37 25 -55 30 -117 33 l-74 4 -25 76 c-14 41 -23 78 -21 81 3 3 34 7 68 9 51 3 73 -1 121 -22 68 -30 66 -30 66 -13 -1 17 -124 110 -157 119 -16 4 -54 12 -85 18 l-57 11 -22 67 c-12 37 -26 72 -33 78 -16 17 -115 43 -122 33z m-592 -169 c105 -39 188 -58 307 -70 51 -5 95 -11 97 -13 3 -2 -23 -22 -57 -44 l-61 -41 -52 21 c-28 12 -121 56 -206 99 -161 79 -173 101 -28 48z m726 -22 c28 -14 61 -90 42 -96 -6 -2 -34 -21 -63 -43 l-52 -39 -27 29 c-21 22 -35 29 -55 26 -16 -2 -31 -4 -35 -4 -5 -1 -8 -5 -8 -11 0 -5 15 -10 34 -10 25 0 40 -7 55 -26 19 -25 19 -26 1 -57 -11 -18 -28 -61 -39 -95 -29 -94 -39 -102 -132 -102 l-78 0 -37 62 c-21 35 -66 102 -101 149 -35 48 -63 89 -63 92 0 3 25 -6 55 -19 31 -14 62 -23 70 -20 8 3 59 34 112 69 54 35 114 72 133 82 67 35 133 40 188 13z m136 -29 c34 -5 72 -19 86 -29 l25 -19 -65 1 c-36 0 -75 -2 -87 -6 -17 -5 -23 -1 -32 25 -6 18 -11 34 -11 35 0 6 20 5 84 -7z m-807 -43 c32 -19 67 -44 77 -55 19 -21 19 -21 0 -21 -42 1 -169 38 -168 48 1 7 2 23 3 37 2 33 18 32 88 -9z m186 -198 c20 -28 35 -53 33 -55 -2 -3 -28 -11 -57 -18 -48 -13 -55 -13 -71 2 -10 9 -18 21 -18 28 0 14 59 95 69 95 5 0 24 -23 44 -52z m-202 -19 l49 -21 -17 -29 c-20 -34 -20 -34 -62 -13 -61 30 -136 6 -185 -59 -27 -36 -26 -119 1 -155 36 -49 71 -67 126 -67 64 0 108 28 133 85 12 27 27 43 47 50 41 14 40 15 34 -32 -8 -61 -52 -118 -116 -151 -94 -47 -179 -32 -253 43 -84 87 -88 200 -10 291 66 77 158 98 253 58z m978 -25 c69 -35 103 -86 109 -164 5 -72 -9 -117 -51 -160 -71 -73 -158 -88 -248 -43 -134 69 -154 257 -36 347 41 32 54 32 63 4 5 -16 0 -26 -20 -41 -34 -24 -66 -87 -66 -127 0 -44 35 -107 73 -131 25 -16 45 -19 90 -16 49 3 62 8 92 37 67 65 67 155 1 219 -28 27 -45 35 -86 39 -41 4 -53 9 -60 26 -4 11 -6 24 -3 29 10 17 91 6 142 -19z m-892 -41 c4 -10 -37 -26 -45 -18 -3 3 1 12 8 20 14 17 31 16 37 -2z m181 -14 c8 -12 10 -25 5 -29 -13 -12 -346 -140 -365 -140 -37 0 -59 47 -39 79 7 11 314 99 381 110 3 1 11 -9 18 -20z m-310 -4 c23 -7 31 -25 10 -25 -30 0 -91 -23 -109 -41 -25 -25 -24 -74 1 -99 24 -24 66 -26 120 -4 53 21 62 11 23 -27 -39 -40 -99 -52 -144 -31 -98 48 -87 202 15 231 31 9 41 8 84 -4z m993 -18 c41 -27 59 -60 59 -107 0 -47 -18 -80 -59 -107 -128 -86 -264 94 -151 202 l29 28 10 -25 c5 -13 15 -43 22 -66 7 -23 16 -42 21 -42 12 0 10 18 -7 74 -8 27 -15 53 -15 58 0 17 58 7 91 -15z" fill="#ffffff"/>
<path d="M720 635 c0 -4 7 -19 15 -36 14 -27 14 -32 0 -51 -20 -30 -19 -50 6 -82 25 -32 77 -36 102 -8 19 21 23 82 6 99 -9 9 -9 20 1 43 17 42 5 50 -17 11 -24 -41 -57 -42 -78 -1 -13 26 -35 41 -35 25z m104 -91 c30 -30 9 -84 -33 -84 -38 0 -58 53 -31 80 24 24 43 25 64 4z" fill="#ffffff"/>
</g>
</svg>