<?xml version="1.0" standalone="no"?>
<!DOCTYPE svg PUBLIC "-//W3C//DTD SVG 20010904//EN"
 "http://www.w3.org/TR/2001/REC-SVG-20010904/DTD/svg10.dtd">
<svg version="1.0" xmlns="http://www.w3.org/2000/svg"
 width="181.000000pt" height="115.000000pt" viewBox="0 0 181.000000 115.000000"
 preserveAspectRatio="xMidYMid meet">

<g transform="translate(0.000000,115.000000) scale(0.100000,-0.100000)"
fill="#000000" stroke="none">
<path d="M90 1022 c0 -5 15 -13 34 -16 l33 -6 42 -159 c22 -86 41 -164 41
-172 0 -8 -18 -25 -40 -39 -22 -14 -40 -30 -40 -37 0 -18 3 -17 53 17 109 73
265 55 351 -40 51 -56 61 -79 40 -87 -12 -4 -21 0 -28 13 -24 42 -87 93 -137
109 -146 49 -297 -48 -316 -203 -14 -125 69 -237 197 -264 71 -14 148 7 204
56 l39 35 196 3 c249 4 232 -6 337 201 42 84 81 157 86 164 8 9 24 1 63 -33
l53 -46 -21 -41 c-11 -22 -23 -67 -25 -98 -16 -213 243 -328 392 -174 106 109
83 278 -49 360 -41 26 -58 30 -114 29 -53 0 -76 -6 -118 -28 l-51 -28 -42 33
c-40 32 -41 34 -18 39 22 6 23 11 26 99 l3 94 -48 -6 c-51 -5 -93 -40 -93 -78
0 -28 -11 -24 -54 20 l-37 38 32 96 c17 52 29 103 26 111 -4 9 -18 21 -32 26
-34 13 -105 13 -105 0 0 -5 15 -10 34 -10 19 0 47 -5 61 -10 30 -11 30 -10
-11 -126 l-25 -71 -48 5 c-31 3 -58 -1 -77 -11 -45 -24 -99 -80 -122 -131
l-22 -46 -53 0 c-61 0 -75 8 -111 67 -34 56 -50 63 -143 63 -49 0 -85 5 -95
13 -8 6 -29 37 -47 68 -37 67 -52 82 -82 77 -19 -3 -23 4 -36 52 -7 30 -17 58
-22 63 -13 13 -81 21 -81 9z m205 -214 c22 -37 44 -70 48 -75 5 -4 52 -10 105
-13 l97 -5 32 -50 c44 -67 57 -75 126 -75 54 0 58 -2 55 -21 -2 -15 -19 -28
-61 -44 l-57 -24 -14 27 c-23 43 -87 99 -141 124 -40 19 -67 23 -136 22 l-86
0 -22 93 c-33 136 -14 151 54 41z m757 -69 c27 -23 46 -45 41 -49 -4 -5 -74
-35 -155 -68 l-148 -59 0 28 c0 42 15 73 57 120 73 81 132 89 205 28z m208
-35 l0 -64 -30 0 c-59 0 -94 76 -52 113 17 15 60 26 75 19 4 -2 7 -32 7 -68z
m-111 -53 l24 -18 -73 -144 c-40 -79 -81 -159 -92 -177 -35 -57 -57 -62 -258
-62 l-181 0 17 33 c12 21 18 57 18 106 l1 74 250 103 c138 57 255 103 260 103
6 0 21 -8 34 -18z m-681 -82 c23 -12 55 -37 69 -56 26 -34 27 -36 8 -49 -28
-21 -46 -17 -81 17 -64 62 -178 49 -224 -26 -27 -43 -26 -117 0 -160 40 -65
138 -85 202 -41 l36 24 28 -24 29 -24 -25 -20 c-78 -62 -180 -71 -258 -23
-138 85 -146 274 -16 366 73 51 148 56 232 16z m1114 -20 c86 -44 134 -169 96
-256 -39 -90 -106 -135 -199 -135 -121 0 -210 92 -209 216 1 42 27 107 45 112
6 2 19 -3 29 -11 18 -13 19 -19 8 -48 -18 -51 -15 -100 11 -138 78 -118 257
-64 257 78 0 102 -112 172 -201 126 -32 -17 -38 -18 -57 -5 -30 20 -27 34 10
56 65 39 139 41 210 5z m-1137 -79 c14 -13 25 -27 25 -30 0 -4 -27 -19 -60
-33 -33 -15 -60 -28 -60 -31 0 -2 23 -21 50 -41 28 -20 50 -41 50 -46 0 -4
-14 -16 -32 -25 -57 -29 -141 -2 -167 54 -27 57 -4 139 47 167 39 22 116 14
147 -15z m1098 -2 c26 -13 57 -68 57 -101 0 -37 -23 -80 -54 -101 -32 -21
-100 -21 -132 0 -49 33 -69 109 -40 149 13 18 16 18 55 -18 23 -20 46 -37 52
-37 15 0 2 17 -42 57 -21 20 -36 39 -33 44 15 25 94 29 137 7z m-963 -85 c0
-61 -18 -123 -35 -123 -5 1 -20 9 -33 20 -19 16 -21 23 -13 39 6 11 11 39 11
63 0 39 3 45 28 54 15 6 30 9 35 7 4 -2 7 -29 7 -60z m-90 -4 c0 -17 -5 -39
-11 -50 -10 -19 -12 -19 -51 13 l-41 32 39 17 c56 25 64 23 64 -12z"/>
<path d="M1025 570 c-10 -16 16 -43 28 -31 11 11 2 41 -12 41 -5 0 -13 -5 -16
-10z"/>
<path d="M820 487 c0 -7 5 -18 12 -25 9 -9 9 -19 0 -46 -20 -55 10 -106 63
-106 55 0 98 73 64 107 -9 9 -9 20 1 43 16 39 7 50 -15 16 -24 -36 -76 -36
-95 -1 -14 27 -30 33 -30 12z m112 -74 c22 -20 23 -41 1 -65 -32 -36 -83 -17
-83 32 0 48 45 67 82 33z"/>
<path d="M670 400 c0 -5 23 -10 51 -10 31 0 48 4 44 10 -3 6 -26 10 -51 10
-24 0 -44 -4 -44 -10z"/>
<path d="M670 320 c0 -5 23 -10 50 -10 28 0 50 5 50 10 0 6 -22 10 -50 10 -27
0 -50 -4 -50 -10z"/>
</g>
</svg>
