<?xml version="1.0" standalone="no"?>
<!DOCTYPE svg PUBLIC "-//W3C//DTD SVG 20010904//EN"
 "http://www.w3.org/TR/2001/REC-SVG-20010904/DTD/svg10.dtd">
<svg version="1.0" xmlns="http://www.w3.org/2000/svg"
 width="168.000000pt" height="110.000000pt" viewBox="0 0 168.000000 110.000000"
 preserveAspectRatio="xMidYMid meet">

<g transform="translate(0.000000,110.000000) scale(0.100000,-0.100000)"
fill="#000000" stroke="none">
<path d="M1059 1017 c6 -8 37 -22 69 -31 l59 -18 21 -66 c12 -36 20 -67 19
-68 -1 -1 -13 -5 -27 -8 -21 -5 -28 -1 -41 26 -24 51 -62 73 -123 73 -103 -1
-220 -83 -254 -177 -15 -44 -19 -48 -57 -54 -53 -7 -117 10 -176 47 -60 38
-102 38 -139 0 -26 -26 -37 -29 -113 -33 -67 -3 -93 -9 -129 -31 -45 -26 -118
-99 -118 -117 0 -20 17 -9 47 28 17 20 54 51 84 67 47 26 64 30 134 30 93 0
134 -18 202 -85 l42 -42 337 127 c346 130 353 132 354 83 0 -20 -213 -392
-244 -426 -40 -45 -67 -52 -201 -52 l-125 0 -44 40 -43 40 -145 0 c-99 0 -148
4 -156 12 -17 17 -15 55 4 62 9 3 92 6 185 6 l168 0 16 -30 c42 -81 157 -60
172 32 5 32 1 41 -25 68 -49 49 -129 36 -152 -26 -8 -21 -16 -24 -58 -24 -47
0 -50 1 -67 39 -22 49 -79 105 -127 126 -101 41 -235 2 -295 -88 -108 -162 5
-377 198 -377 33 0 74 6 93 14 50 21 107 76 128 124 10 23 26 42 34 42 8 0 37
-20 63 -45 l48 -45 113 0 c132 0 178 11 223 55 17 17 76 109 130 203 132 229
121 216 142 153 9 -29 15 -53 14 -55 -2 -1 -23 -14 -45 -28 -28 -18 -50 -44
-68 -79 -79 -160 27 -339 201 -339 248 1 323 328 101 441 -25 13 -58 19 -100
19 l-63 0 -23 64 c-12 36 -22 69 -22 74 0 5 16 6 38 2 60 -11 62 -8 62 91 l0
89 -35 0 c-38 0 -95 -24 -95 -40 0 -24 -17 -6 -30 32 -14 39 -20 45 -75 65
-72 26 -103 30 -86 10z m299 -159 l3 -68 -31 0 c-66 0 -95 79 -43 120 15 11
36 20 47 18 19 -3 21 -11 24 -70z m-254 27 c22 -14 54 -72 45 -78 -11 -8 -336
-127 -346 -127 -17 0 -16 8 2 61 21 59 58 96 130 130 68 33 132 38 169 14z
m-556 -172 c61 -35 74 -38 144 -38 43 0 78 -3 78 -6 0 -4 -45 -23 -100 -44
l-100 -37 -39 35 c-22 20 -58 45 -81 57 -46 23 -49 33 -18 54 32 22 42 21 116
-21z m-132 -109 c40 -21 104 -94 104 -120 0 -9 -11 -14 -32 -14 -26 0 -39 8
-61 35 -95 119 -292 22 -257 -129 26 -115 165 -151 251 -65 28 28 47 39 70 39
27 0 30 -3 24 -22 -21 -69 -119 -138 -195 -138 -145 0 -254 136 -219 274 14
56 70 123 123 148 52 24 136 20 192 -8z m1052 -10 c77 -32 131 -111 132 -192
1 -170 -198 -271 -333 -169 -109 83 -116 235 -13 325 45 39 54 40 67 5 9 -24
7 -30 -16 -46 -79 -58 -70 -198 15 -242 37 -19 103 -19 140 0 40 21 70 74 70
126 0 82 -57 139 -138 139 -40 0 -51 13 -52 58 0 17 82 15 128 -4z m-1102 -74
c70 -34 65 -50 -16 -50 -60 0 -71 -3 -84 -22 -21 -30 -20 -54 4 -78 16 -16 34
-20 88 -20 l67 -1 -33 -29 c-54 -50 -145 -39 -182 22 -41 68 -11 160 60 185
47 16 48 16 96 -7z m424 -10 c39 -39 12 -120 -39 -120 -32 0 -71 39 -71 71 0
36 31 69 65 69 14 0 34 -9 45 -20z m685 -30 c25 -26 30 -38 30 -80 0 -72 -43
-115 -115 -115 -66 0 -110 40 -117 108 -5 41 -2 48 29 83 l35 38 22 -67 c13
-37 27 -67 32 -67 13 0 11 26 -6 67 -8 19 -15 44 -15 56 0 17 5 19 37 14 22
-4 49 -19 68 -37z"/>
<path d="M962 658 c3 -8 28 -14 66 -16 l61 -3 -21 -34 -20 -35 -83 0 c-46 0
-87 -4 -90 -10 -4 -6 23 -10 74 -10 45 0 81 -3 81 -6 0 -4 -9 -22 -21 -40 -18
-29 -26 -34 -59 -34 -21 0 -42 -4 -45 -10 -4 -6 14 -10 47 -10 l54 0 57 98
c31 55 57 104 57 110 0 8 -26 12 -81 12 -60 0 -80 -3 -77 -12z"/>
</g>
</svg>
