<svg xmlns="http://www.w3.org/2000/svg" version="1.0" width="164.000000pt" height="107.000000pt" viewBox="0 0 164.000000 107.000000" preserveAspectRatio="xMidYMid meet">

<g transform="translate(0.000000,107.000000) scale(0.100000,-0.100000)" fill="#ffffff" stroke="none">
<path d="M1160 992 c0 -5 14 -28 31 -51 26 -36 30 -50 27 -94 -4 -74 -27 -74 -53 0 -20 53 -24 58 -70 74 -58 20 -75 23 -75 10 0 -5 23 -17 51 -26 45 -15 53 -22 70 -62 24 -56 24 -60 -1 -68 -15 -5 -29 3 -54 29 -48 52 -90 66 -195 66 -86 0 -91 -1 -132 -32 -23 -18 -53 -53 -66 -77 -13 -25 -24 -46 -26 -47 -2 -2 -25 3 -52 12 -28 8 -67 19 -87 24 -33 9 -38 16 -53 63 -10 28 -22 57 -29 64 -6 6 -62 25 -123 42 l-113 30 0 -39 c0 -85 20 -111 194 -247 218 -172 236 -187 236 -196 0 -19 -42 -67 -59 -67 -11 0 -25 15 -36 39 -22 49 -79 105 -127 126 -48 19 -138 19 -186 -1 -89 -37 -146 -124 -146 -224 0 -100 57 -187 146 -224 46 -20 138 -21 182 -2 49 20 110 79 131 126 26 59 53 55 86 -13 l25 -52 218 -3 c173 -2 217 0 212 10 -69 167 -26 319 113 401 l31 18 11 -28 c8 -20 7 -29 -2 -32 -6 -2 -30 -20 -52 -40 -156 -141 -59 -400 150 -401 134 0 233 98 233 229 -1 136 -98 230 -238 231 -56 0 -64 2 -71 23 -5 12 -7 24 -5 26 2 2 29 6 60 10 55 6 59 8 91 54 l34 48 -15 53 c-29 99 -96 171 -194 209 -47 19 -72 22 -72 9z m84 -36 c78 -33 166 -147 166 -216 0 -14 -11 -42 -24 -61 -23 -33 -30 -37 -80 -41 -117 -10 -223 -96 -262 -211 -16 -48 -15 -143 1 -209 l7 -28 -189 0 -189 0 -27 55 -27 55 -153 0 c-106 0 -157 4 -165 12 -17 17 -15 55 4 62 9 3 82 6 164 6 l148 0 26 44 c14 25 26 48 25 53 0 4 -90 78 -200 163 -110 85 -206 166 -214 180 -7 14 -16 43 -20 63 -8 43 -21 43 120 4 l79 -22 18 -61 18 -61 167 -48 c93 -26 189 -54 214 -61 41 -12 48 -19 74 -74 l29 -61 -24 -45 c-21 -37 -29 -44 -47 -39 -33 8 -72 -11 -91 -45 -13 -24 -24 -30 -49 -30 -18 0 -33 -4 -33 -10 0 -5 15 -10 33 -10 25 0 36 -6 49 -30 32 -55 100 -62 138 -13 23 30 26 70 6 99 -13 18 -11 25 16 69 l31 50 -39 74 -39 75 -99 28 c-54 15 -101 30 -104 32 -12 13 36 91 72 118 34 24 48 28 110 28 98 0 140 -14 187 -62 l40 -41 62 14 62 14 3 69 c2 48 -1 73 -11 85 -19 22 -29 41 -22 41 3 0 21 -6 39 -14z m-851 -407 c43 -12 101 -59 123 -100 21 -41 18 -49 -19 -49 -25 0 -39 7 -54 28 -45 61 -137 78 -199 37 -83 -54 -86 -187 -6 -244 66 -46 158 -33 205 31 15 21 29 28 54 28 40 0 42 -14 10 -61 -121 -179 -401 -94 -400 122 2 151 136 250 286 208z m1025 -25 c110 -45 162 -174 113 -279 -63 -136 -232 -166 -337 -61 -85 85 -85 208 1 293 49 50 62 53 76 17 8 -24 5 -31 -26 -62 -91 -91 -33 -242 93 -242 84 0 142 57 142 141 0 82 -57 139 -138 139 -32 0 -41 5 -51 26 -6 14 -9 30 -6 35 10 14 92 11 133 -7z m-1015 -86 c15 -11 27 -24 27 -29 0 -5 -28 -9 -63 -9 -69 0 -93 -12 -102 -50 -4 -18 0 -32 15 -48 17 -18 31 -22 85 -22 36 0 65 -4 65 -9 0 -22 -64 -54 -105 -54 -94 0 -154 99 -111 182 36 68 122 86 189 39z m1011 -15 c55 -40 58 -128 5 -179 -25 -24 -39 -29 -80 -29 -44 0 -54 4 -80 32 -51 57 -51 108 0 165 l28 32 23 -62 c13 -34 27 -62 31 -62 13 0 11 14 -10 69 -10 28 -16 53 -12 56 10 11 69 -3 95 -22z m-494 -65 c13 -25 13 -31 0 -55 -21 -38 -81 -45 -104 -11 -20 28 -20 48 0 76 23 34 83 27 104 -10z" fill="#ffffff"/>
<path d="M775 505 c-39 -62 -40 -65 -22 -65 6 0 26 24 42 52 38 68 39 68 26 68 -6 0 -26 -25 -46 -55z" fill="#ffffff"/>
</g>
</svg>