<svg xmlns="http://www.w3.org/2000/svg" version="1.0" width="160.000000pt" height="114.000000pt" viewBox="0 0 160.000000 114.000000" preserveAspectRatio="xMidYMid meet">

<g transform="translate(0.000000,114.000000) scale(0.100000,-0.100000)" fill="#ffffff" stroke="none">
<path d="M170 968 c0 -81 25 -111 225 -267 121 -95 185 -150 182 -160 -5 -27 -30 -16 -125 52 l-91 67 -76 -10 c-109 -14 -177 -55 -216 -132 -59 -117 -17 -258 99 -325 38 -23 58 -27 116 -27 106 -1 168 38 221 137 26 49 54 49 80 0 11 -20 25 -41 31 -48 7 -7 71 -10 189 -10 211 1 205 -2 205 114 0 92 10 132 49 193 30 47 106 111 124 105 6 -2 14 -12 18 -24 6 -17 1 -25 -29 -44 -20 -13 -50 -44 -67 -67 -28 -40 -30 -50 -30 -127 0 -77 2 -86 31 -126 17 -24 53 -57 79 -74 41 -26 58 -30 114 -30 80 1 134 26 180 83 40 52 51 82 51 148 0 135 -93 227 -233 228 -55 1 -68 4 -73 18 -7 25 1 35 36 43 30 7 60 46 60 78 0 36 -111 103 -156 95 -13 -2 -22 12 -38 55 -22 61 -13 55 -133 92 -7 3 -13 -2 -13 -9 0 -8 23 -20 52 -28 50 -14 54 -18 71 -62 9 -26 15 -52 12 -57 -10 -15 -42 -10 -80 13 -72 42 -215 61 -262 35 -12 -7 -39 -37 -60 -67 -24 -35 -47 -56 -62 -58 -12 -2 -63 9 -113 24 -81 25 -94 32 -136 80 -33 36 -71 64 -129 93 -46 22 -87 41 -93 41 -5 0 -10 -19 -10 -42z m96 -24 c38 -19 94 -59 124 -89 60 -58 135 -91 232 -102 29 -3 65 -14 80 -25 44 -30 107 -48 172 -48 66 0 131 14 142 31 11 18 -1 19 -51 3 -64 -20 -157 -13 -212 15 -23 11 -44 25 -48 31 -6 10 42 87 69 110 36 29 199 6 266 -38 14 -10 40 -17 59 -17 33 0 36 -3 58 -60 13 -32 23 -62 23 -66 0 -4 -14 -12 -30 -19 -45 -19 -125 -112 -144 -166 -9 -28 -16 -80 -16 -129 0 -50 -5 -86 -12 -93 -8 -8 -63 -12 -179 -12 l-168 0 -27 50 -27 50 -161 2 -161 3 0 30 0 30 88 3 c75 2 92 0 116 -18 35 -24 35 -24 56 -4 16 16 19 15 65 -11 15 -9 52 -15 93 -15 40 0 67 -4 67 -10 0 -6 11 -22 25 -35 33 -34 87 -34 120 0 54 53 16 145 -60 145 -35 0 -85 -35 -85 -60 0 -6 -29 -10 -74 -10 -57 0 -79 4 -97 19 l-23 18 30 39 c17 22 34 44 37 50 4 7 -72 73 -188 163 -107 83 -201 164 -209 179 -14 29 -31 92 -23 92 2 0 35 -16 73 -36z m987 -139 c43 -30 49 -65 15 -89 -44 -31 -63 -21 -87 43 -11 32 -21 61 -21 65 0 16 59 4 93 -19z m-800 -243 c48 -35 87 -67 87 -70 0 -4 -11 -20 -24 -36 l-23 -30 -94 69 c-52 37 -96 69 -98 71 -9 8 42 73 52 67 7 -4 51 -36 100 -71z m-162 40 c-5 -9 -12 -25 -15 -34 -3 -10 -13 -18 -23 -18 -26 0 -72 -33 -94 -66 -22 -34 -25 -101 -5 -148 38 -92 193 -102 252 -17 11 15 26 21 50 21 32 0 35 -2 28 -22 -11 -38 -66 -93 -110 -112 -64 -26 -133 -23 -193 9 -178 98 -138 367 61 404 51 9 61 6 49 -17z m1084 -13 c168 -63 180 -301 19 -380 -63 -30 -153 -24 -210 14 -89 60 -117 184 -62 278 26 44 65 79 88 79 6 0 15 -12 20 -26 9 -22 7 -29 -15 -46 -123 -96 -19 -297 129 -248 19 6 49 27 67 47 29 34 31 40 27 95 -3 47 -10 64 -33 88 -31 33 -86 55 -116 47 -14 -4 -23 3 -34 23 -8 16 -15 31 -15 34 0 4 23 9 67 15 7 0 37 -8 68 -20z m-1025 -89 l35 -29 -58 -1 c-48 0 -62 -4 -82 -25 -31 -31 -31 -49 0 -80 20 -21 34 -25 86 -25 55 0 60 -2 48 -16 -38 -47 -108 -56 -160 -21 -79 53 -79 151 0 204 46 31 88 29 131 -7z m1018 -6 c51 -36 66 -107 32 -161 -26 -44 -54 -56 -112 -51 -56 6 -92 37 -103 89 -8 35 9 90 35 114 25 22 35 15 50 -40 12 -44 26 -63 37 -52 3 3 -4 31 -16 61 l-21 56 38 0 c21 0 48 -7 60 -16z m-499 -48 c26 -27 24 -62 -5 -90 -22 -23 -51 -20 -79 9 -30 29 -31 45 -4 79 26 33 59 33 88 2z" fill="#ffffff"/>
<path d="M691 553 c-22 -31 -37 -61 -34 -67 4 -5 16 3 27 19 53 75 70 85 140 85 37 0 66 4 66 10 0 6 -33 10 -79 10 l-79 0 -41 -57z" fill="#ffffff"/>
</g>
</svg>