<svg xmlns="http://www.w3.org/2000/svg" version="1.0" width="166.000000pt" height="118.000000pt" viewBox="0 0 166.000000 118.000000" preserveAspectRatio="xMidYMid meet">

<g transform="translate(0.000000,118.000000) scale(0.100000,-0.100000)" fill="#ffffff" stroke="none">
<path d="M302 1088 c-7 -7 -12 -39 -12 -74 l0 -61 -49 -7 c-59 -8 -137 -57 -164 -103 l-18 -32 50 -53 49 -53 -42 -60 c-24 -33 -58 -82 -77 -108 l-34 -48 23 -39 c15 -26 22 -55 22 -89 l0 -51 35 0 c31 0 37 -4 50 -38 38 -89 125 -146 225 -146 102 0 180 49 222 142 24 53 56 57 98 12 l28 -30 211 0 211 0 0 88 c0 63 6 98 19 128 37 82 142 174 162 142 14 -22 12 -26 -49 -86 -66 -64 -89 -123 -76 -196 37 -227 336 -278 438 -75 81 163 -49 355 -227 335 -43 -5 -49 -3 -56 17 -5 12 -7 25 -5 29 2 3 30 9 62 13 52 6 59 10 81 43 31 46 38 116 18 162 -15 35 -181 242 -199 249 -16 6 -37 -32 -38 -66 0 -18 9 -57 21 -87 19 -52 19 -56 3 -81 -23 -35 -30 -32 -46 18 l-15 42 -62 3 c-42 2 -61 0 -56 -7 3 -6 28 -11 54 -11 42 0 49 -3 54 -22 3 -13 9 -33 12 -45 l7 -23 -129 0 c-144 0 -166 -8 -198 -71 -15 -28 -17 -29 -93 -29 l-77 1 -27 44 -27 45 -79 0 c-91 0 -94 2 -121 81 -13 40 -24 55 -41 59 -19 4 -27 18 -40 69 -10 35 -24 67 -31 72 -20 12 -53 11 -67 -3z m55 -20 c9 -11 33 -95 33 -112 0 -3 -15 -6 -34 -6 -22 0 -36 6 -40 16 -11 28 -6 102 7 107 20 8 24 8 34 -5z m1006 -77 c37 -43 67 -82 67 -85 0 -3 -24 -6 -54 -6 l-54 0 -22 65 c-17 52 -20 105 -6 105 2 0 33 -35 69 -79z m-904 -104 c11 -39 10 -49 -11 -103 l-24 -59 -120 -3 c-65 -1 -123 1 -129 6 -5 4 -27 26 -48 49 l-39 41 18 27 c10 15 45 41 79 56 54 26 71 29 161 29 l101 0 12 -43z m1007 -32 c27 -41 28 -95 2 -140 -22 -37 -27 -40 -82 -47 -165 -21 -271 -140 -283 -317 l-6 -81 -95 0 c-83 0 -93 2 -82 15 7 8 29 15 49 15 52 0 81 23 81 66 0 27 -6 38 -30 53 l-30 18 34 44 c18 24 93 124 166 222 l132 177 64 0 c56 0 65 -3 80 -25z m-874 -65 l73 0 28 -45 29 -45 87 0 88 0 18 -55 c12 -34 25 -55 35 -56 8 0 35 -2 60 -3 25 -1 45 -6 46 -11 0 -6 -22 -40 -49 -77 -39 -55 -54 -68 -75 -68 -54 0 -72 -13 -122 -86 -54 -78 -74 -88 -105 -54 -18 19 -17 20 4 20 12 0 19 4 16 10 -4 6 -123 10 -326 10 l-319 0 0 35 0 35 309 0 c190 0 312 4 316 10 7 11 -34 23 -63 18 -28 -4 -27 3 5 65 35 69 35 133 -1 187 l-26 40 -86 0 c-78 0 -85 2 -79 18 4 9 12 29 17 44 8 23 13 26 28 18 10 -6 52 -10 92 -10z m609 -32 c-17 -24 -48 -65 -69 -93 l-38 -50 -71 -3 -71 -3 -16 47 c-22 66 -20 81 13 115 29 29 29 29 156 29 l126 0 -30 -42z m-571 -98 c11 -21 20 -54 20 -71 0 -38 -58 -157 -79 -161 -8 -2 -125 -2 -260 0 l-246 3 -16 28 -17 29 76 106 75 106 214 0 213 0 20 -40z m866 -111 c17 -5 48 -26 68 -46 130 -130 39 -353 -143 -353 -125 0 -211 84 -211 205 0 65 28 123 76 163 36 30 40 31 52 15 19 -26 15 -46 -18 -76 -80 -76 -47 -206 61 -238 74 -23 161 31 175 108 16 87 -47 166 -134 169 -45 2 -59 14 -61 51 -2 22 65 23 135 2z m2 -108 c38 -38 46 -80 26 -132 -19 -47 -56 -69 -115 -69 -33 0 -47 6 -75 34 -45 45 -48 108 -8 155 14 17 29 31 33 31 4 0 13 -17 20 -37 30 -84 32 -86 42 -76 7 7 3 27 -11 62 -11 28 -20 54 -20 56 0 3 18 5 39 5 30 0 46 -7 69 -29z m-475 -63 c17 -27 -9 -48 -59 -48 -37 0 -45 -4 -61 -30 -15 -27 -23 -30 -66 -30 l-48 0 41 61 c23 33 50 63 61 67 32 12 121 -1 132 -20z m-783 -98 c58 -82 191 -79 246 5 12 19 25 25 51 25 28 0 34 -3 29 -16 -3 -9 -6 -20 -6 -24 0 -5 -15 -26 -32 -46 -81 -92 -227 -102 -316 -20 -21 18 -62 86 -62 101 0 3 15 5 34 5 27 0 39 -7 56 -30z m220 16 c0 -30 -74 -61 -124 -52 -33 6 -76 38 -76 56 0 6 43 10 100 10 79 0 100 -3 100 -14z" fill="#ffffff"/>
<path d="M746 569 c-51 -40 -22 -122 44 -122 25 0 39 7 59 31 15 19 35 32 49 32 12 0 22 5 22 10 0 6 -11 10 -24 10 -14 0 -38 13 -54 30 -36 35 -60 38 -96 9z m85 -32 c16 -29 -4 -67 -35 -67 -51 0 -74 56 -35 83 25 18 56 11 70 -16z" fill="#ffffff"/>
<path d="M230 560 c0 -6 53 -10 140 -10 87 0 140 4 140 10 0 6 -53 10 -140 10 -87 0 -140 -4 -140 -10z" fill="#ffffff"/>
</g>
</svg>